<?xml version="1.0" encoding="utf-8"?>
<!-- Generator: Adobe Illustrator 16.0.4, SVG Export Plug-In . SVG Version: 6.00 Build 0)  -->
<!DOCTYPE svg PUBLIC "-//W3C//DTD SVG 1.1//EN" "http://www.w3.org/Graphics/SVG/1.1/DTD/svg11.dtd">
<svg version="1.1" id="logo_small" xmlns="http://www.w3.org/2000/svg" xmlns:xlink="http://www.w3.org/1999/xlink" x="0px" y="0px"
	 width="70px" height="18px" viewBox="5 0 70 18" enable-background="new 5 0 70 18" xml:space="preserve">
<path id="logo_small_path" fill="#222222" d="M13.126,11.311c0.622-0.268,1.103-0.682,1.44-1.237
	c0.337-0.554,0.505-1.15,0.505-1.784c0-0.403-0.074-0.803-0.22-1.2c-0.147-0.397-0.352-0.751-0.621-1.063
	c-0.268-0.312-0.591-0.564-0.973-0.76c-0.379-0.195-0.806-0.293-1.278-0.293H5v13h6.466c0.572,0,1.112-0.079,1.621-0.23
	c0.507-0.151,0.951-0.372,1.325-0.658c0.375-0.285,0.675-0.638,0.896-1.051c0.223-0.415,0.335-0.886,0.335-1.414
	c0-0.826-0.227-1.532-0.676-2.112C14.515,11.931,13.9,11.528,13.126,11.311z M7.135,6.751h4.045c0.509,0,0.929,0.179,1.258,0.541
	c0.33,0.36,0.495,0.82,0.495,1.381c0,0.281-0.047,0.539-0.145,0.77c-0.094,0.231-0.228,0.431-0.401,0.594
	c-0.171,0.166-0.368,0.296-0.591,0.394c-0.222,0.1-0.468,0.146-0.734,0.146H7.135V6.751z M13.297,14.999
	c-0.101,0.236-0.241,0.445-0.419,0.622c-0.179,0.178-0.387,0.315-0.629,0.421c-0.242,0.104-0.504,0.154-0.783,0.154H7.135v-3.971
	h4.463c0.266,0,0.514,0.055,0.744,0.164c0.228,0.111,0.422,0.256,0.582,0.441c0.158,0.182,0.286,0.396,0.382,0.639
	c0.095,0.245,0.145,0.503,0.145,0.77C13.45,14.509,13.398,14.761,13.297,14.999z M22.013,12.189h5.859v-1.703h-5.859V6.788h6.764
	V4.976h-8.833v13h9v-1.813h-6.93L22.013,12.189L22.013,12.189z M42.709,14.348l-7.747-9.372h-1.678v13h2.134V8.82l7.668,9.156h1.776
	V4.995h-2.155v9.353H42.709z M48.5,6.312h4.455V17.5h2.108V6.312H59.5V4.5h-11V6.312z M74.533,9.119
	c-0.311-0.778-0.748-1.474-1.315-2.087c-0.567-0.614-1.249-1.111-2.041-1.49c-0.793-0.379-1.675-0.568-2.64-0.568
	c-0.942,0-1.812,0.178-2.612,0.532c-0.801,0.358-1.489,0.834-2.07,1.436c-0.579,0.602-1.034,1.293-1.363,2.076
	C62.162,9.8,62,10.619,62,11.473c0,0.819,0.153,1.62,0.463,2.4c0.311,0.786,0.751,1.479,1.324,2.088
	c0.574,0.606,1.258,1.096,2.052,1.461c0.795,0.368,1.673,0.552,2.642,0.552c0.941,0,1.808-0.178,2.603-0.534
	c0.792-0.354,1.479-0.83,2.06-1.425c0.578-0.596,1.034-1.284,1.362-2.067C74.836,13.164,75,12.344,75,11.489
	C74.999,10.687,74.844,9.895,74.533,9.119z M72.538,13.112c-0.193,0.534-0.469,1.016-0.832,1.447
	c-0.363,0.426-0.807,0.774-1.333,1.034c-0.528,0.261-1.125,0.391-1.786,0.391c-0.646,0-1.232-0.123-1.755-0.374
	c-0.521-0.25-0.966-0.582-1.332-1.002c-0.368-0.417-0.65-0.896-0.85-1.443c-0.198-0.547-0.294-1.111-0.294-1.69
	c0-0.556,0.094-1.105,0.283-1.645c0.191-0.541,0.47-1.02,0.832-1.437c0.361-0.418,0.807-0.758,1.335-1.018
	c0.527-0.261,1.121-0.392,1.783-0.392c0.634,0,1.216,0.125,1.735,0.375c0.52,0.25,0.965,0.58,1.334,0.991
	c0.368,0.414,0.654,0.888,0.857,1.428s0.305,1.105,0.305,1.698C72.825,12.031,72.728,12.577,72.538,13.112z M74.181,0H62.854v1.698
	h11.326V0z"/>
</svg>
